<svg xmlns="http://www.w3.org/2000/svg" viewBox="0 0 48 48"><defs><style>.cls-1{fill:none;}.cls-2{fill:#4c4b4c;}</style></defs><g id="レイヤー_2" data-name="レイヤー 2"><g id="レイヤー_1-2" data-name="レイヤー 1"><rect class="cls-1" width="48" height="48"/><path class="cls-2" d="M42.12,30.86c-.6-2.08-1.2-4.15-1.79-6.23-.2-.67-.39-1.34-.59-2l-1.61,1.62c.52,2.06,1,4.13,1.57,6.19.26,1-.42,1.92-1.54,1.58a17.72,17.72,0,0,0-5.81-1.4,15.53,15.53,0,0,0-6.63,1.21c-.23.1-1.79,1.22-1.86.42,0-1.86-.07-3.73-.1-5.6l-.21-11.56c0-.23.52-.34.63-.38A14.23,14.23,0,0,1,26.89,14a16.35,16.35,0,0,1,6.64.38,4.78,4.78,0,0,1,1.95.85l1-1a5.2,5.2,0,0,0-1.12-.65,16.66,16.66,0,0,0-6.24-1.21,18.54,18.54,0,0,0-6.4,1c-.4.14-1.05-.22-1.45-.33s-1-.24-1.45-.33a19.91,19.91,0,0,0-3.26-.33,20.88,20.88,0,0,0-6.22,1c-.44.17-.12.05,0,0a4.51,4.51,0,0,0-3,2.61c-.09.34-.19.68-.29,1L5.57,22.09l-2,7.08c-.39,1.37-1.18,3.14-.88,4.58A3.05,3.05,0,0,0,6.44,36a12.83,12.83,0,0,0,1.71-.6,22.47,22.47,0,0,1,2.91-.83,15.74,15.74,0,0,1,7.12.37c.52.14,2.48.47,2.53,1.06s.68.39,1.08.39H23a3.78,3.78,0,0,0,1.3,0c.34-.15.07-.52.4-.66A12.62,12.62,0,0,1,26,35.24a21.64,21.64,0,0,1,3.26-.74,15.07,15.07,0,0,1,6.86.62c1.33.42,2.61,1.19,4.05.93a3.12,3.12,0,0,0,2.25-4.14C42.33,31.56,42.22,31.21,42.12,30.86ZM21.53,19.65q-.12,6.23-.23,12.43c0,.28-.08.45-.39.45a14.6,14.6,0,0,0-5.6-1.82,15.63,15.63,0,0,0-6.65.69,7.82,7.82,0,0,1-2.14.67,1.15,1.15,0,0,1-1.1-1.49l1.5-5.88q.87-3.46,1.76-6.93c.14-.57.29-1.15.43-1.72.36-1.41,2.35-1.67,3.54-1.92a15.36,15.36,0,0,1,6.68.06c.38.09,2.3.39,2.29.94Z"/><path class="cls-2" d="M28.07,28.45l5.82-1.23L45.42,15.69,40.83,11.1,29.3,22.63ZM43.21,15.69l-9.89,9.88-1-1,9.89-9.88Zm-2.38-2.38,1,1L32,24.22l-1-1ZM30.71,23.63l2.18,2.18-2,.44-.59-.59Z"/></g></g></svg>